<?xml version="1.0" encoding="UTF-8"?>
<svg width="25px" height="25px" viewBox="0 0 25 25" version="1.1" xmlns="http://www.w3.org/2000/svg" xmlns:xlink="http://www.w3.org/1999/xlink">
    <!-- Generator: Sketch 46.2 (44496) - http://www.bohemiancoding.com/sketch -->
    <title>backcategories@1x</title>
    <desc>Created with Sketch.</desc>
    <defs></defs>
    <g id="Symbols" stroke="none" stroke-width="1" fill="none" fill-rule="evenodd">
        <g id="categories" transform="translate(-16.000000, -93.000000)">
            <g id="backcategories" transform="translate(16.000000, 93.000000)">
                <g id="more" transform="translate(12.500000, 12.500000) rotate(90.000000) translate(-12.500000, -12.500000) ">
                    <g transform="translate(12.500000, 12.500000) rotate(90.000000) translate(-12.500000, -12.500000) ">
                        <g id="Group" fill-rule="nonzero" fill="#66A0E5">
                            <path d="M12.5,24.75 C5.73451181,24.75 0.25,19.2654882 0.25,12.5 C0.25,5.73451181 5.73451181,0.25 12.5,0.25 C19.2654882,0.25 24.75,5.73451181 24.75,12.5 C24.75,19.2654882 19.2654882,24.75 12.5,24.75 Z M12.5,23.25 C18.4370611,23.25 23.25,18.4370611 23.25,12.5 C23.25,6.56293894 18.4370611,1.75 12.5,1.75 C6.56293894,1.75 1.75,6.56293894 1.75,12.5 C1.75,18.4370611 6.56293894,23.25 12.5,23.25 Z" id="Oval"></path>
                            <path d="M16.2121483,7.80305736 C16.5050415,7.51016414 16.5050415,7.03529041 16.2121483,6.74239719 C15.919255,6.44950397 15.4443813,6.44950397 15.1514881,6.74239719 L9.92421537,11.9696699 C9.63132215,12.2625631 9.63132215,12.7374369 9.92421537,13.0303301 L15.1514881,18.2576028 C15.4443813,18.550496 15.919255,18.550496 16.2121483,18.2576028 C16.5050415,17.9647096 16.5050415,17.4898359 16.2121483,17.1969426 L11.5152056,12.5 L16.2121483,7.80305736 Z" id="shape" transform="translate(13.068182, 12.500000) scale(-1, 1) translate(-13.068182, -12.500000) "></path>
                        </g>
                        <rect id="bounds" x="0" y="0" width="25" height="25"></rect>
                    </g>
                </g>
            </g>
        </g>
    </g>
</svg>