<?xml version="1.0" encoding="UTF-8"?>
<svg width="16px" height="17px" viewBox="0 0 16 17" version="1.1" xmlns="http://www.w3.org/2000/svg" xmlns:xlink="http://www.w3.org/1999/xlink">
    <!-- Generator: Sketch 46.2 (44496) - http://www.bohemiancoding.com/sketch -->
    <title>guest@1x</title>
    <desc>Created with Sketch.</desc>
    <defs></defs>
    <g id="-" stroke="none" stroke-width="1" fill="none" fill-rule="evenodd">
        <g id="Tablet-customer-cart-guest" transform="translate(-91.000000, -99.000000)" fill="#4A90E2">
            <g id="Group-10" transform="translate(69.500000, 78.500000)">
                <g id="guest" transform="translate(21.000000, 20.000000)">
                    <g id="Page-1" transform="translate(2.000000, 1.000000)">
                        <path d="M6.59663121,0.954787234 C5.4206781,0.954787234 4.46719858,1.90826675 4.46719858,3.08421986 C4.46719858,4.26017296 5.4206781,5.21365248 6.59663121,5.21365248 C7.77258431,5.21365248 8.72606383,4.26017296 8.72606383,3.08421986 C8.72606383,1.90826675 7.77258431,0.954787234 6.59663121,0.954787234 Z M6.59663121,-0.545212766 C8.60101143,-0.545212766 10.2260638,1.07983963 10.2260638,3.08421986 C10.2260638,5.08860009 8.60101143,6.71365248 6.59663121,6.71365248 C4.59225098,6.71365248 2.96719858,5.08860009 2.96719858,3.08421986 C2.96719858,1.07983963 4.59225098,-0.545212766 6.59663121,-0.545212766 Z" id="Stroke-1" fill-rule="nonzero"></path>
                        <path d="M0.867907801,15.3218085 C0.867907801,12.1576072 3.43242987,9.59308511 6.59663121,9.59308511 C9.76083254,9.59308511 12.3253546,12.1576072 12.3253546,15.3218085 C12.3253546,15.7360221 12.661141,16.0718085 13.0753546,16.0718085 C13.4895682,16.0718085 13.8253546,15.7360221 13.8253546,15.3218085 C13.8253546,11.3291801 10.5892597,8.09308511 6.59663121,8.09308511 C2.60400275,8.09308511 -0.632092199,11.3291801 -0.632092199,15.3218085 C-0.632092199,15.7360221 -0.296305761,16.0718085 0.117907801,16.0718085 C0.532121364,16.0718085 0.867907801,15.7360221 0.867907801,15.3218085 Z" id="Stroke-3" fill-rule="nonzero"></path>
                    </g>
                </g>
            </g>
        </g>
    </g>
</svg>