<svg xmlns="http://www.w3.org/2000/svg" width="20" height="20" viewBox="0 0 20 20">
    <defs>
        <path id="a" d="M0 25.003V0h25v25.003z"/>
    </defs>
    <g fill="none" fill-rule="evenodd">
        <path fill="#DFE1E4" d="M4.756 17.152c-1.085 0-1.904-.818-1.906-1.902-.003-1.081.815-1.906 1.9-1.916a1.888 1.888 0 0 1 1.918 1.916c-.005 1.08-.832 1.902-1.912 1.902M18.14.005c-.563 0-1.126.004-1.689-.003a.34.34 0 0 0-.268.115c-2.502 2.505-5.006 5.007-7.505 7.514-.12.12-.22.148-.38.1-.796-.237-1.607-.358-2.44-.296a6.176 6.176 0 0 0-3.299 1.213C1.276 9.602.457 10.868.137 12.43c-.33 1.61-.07 3.136.787 4.547.822 1.352 2 2.262 3.503 2.738.933.296 1.893.36 2.864.202a6.164 6.164 0 0 0 3.452-1.762 6.154 6.154 0 0 0 1.757-3.451c.168-1.052.067-2.077-.246-3.087-.033-.108-.006-.166.067-.24 1.037-1.032 2.07-2.07 3.108-3.102a.36.36 0 0 0 .12-.284c-.007-.634.001-1.267-.007-1.9-.001-.137.042-.162.165-.16.629.005 1.257-.005 1.885.007.16.002.183-.051.182-.191-.007-.629 0-1.257-.006-1.885-.001-.12.023-.157.15-.156.634.007 1.267 0 1.901.006.134.002.183-.018.182-.172-.008-1.125-.005-2.25-.002-3.376 0-.12-.02-.165-.155-.163-.568.01-1.136.004-1.704.004"/>
    </g>
</svg>
