<?xml version="1.0" encoding="UTF-8"?>
<svg width="18px" height="18px" viewBox="0 0 18 18" version="1.1" xmlns="http://www.w3.org/2000/svg" xmlns:xlink="http://www.w3.org/1999/xlink">
    <!-- Generator: Sketch 46.2 (44496) - http://www.bohemiancoding.com/sketch -->
    <title>search@1x</title>
    <desc>Created with Sketch.</desc>
    <defs></defs>
    <g id="Symbols" stroke="none" stroke-width="1" fill="none" fill-rule="evenodd">
        <g id="Search-Box" transform="translate(-12.000000, -8.000000)">
            <g id="search">
                <g transform="translate(10.000000, 7.000000)">
                    <g id="group" transform="translate(10.500000, 10.500000) scale(-1, 1) translate(-10.500000, -10.500000) translate(1.680000, 1.680000)" fill-rule="nonzero" fill="#BBBBBE">
                        <path d="M10.0522785,12.9327273 C13.2058151,12.9327273 15.7627575,10.3736981 15.7627575,7.21636364 C15.7627575,4.05902917 13.2058151,1.5 10.0522785,1.5 C6.89874185,1.5 4.34179943,4.05902917 4.34179943,7.21636364 C4.34179943,10.3736981 6.89874185,12.9327273 10.0522785,12.9327273 Z M10.0522785,14.4327273 C6.07004067,14.4327273 2.84179943,11.2018514 2.84179943,7.21636364 C2.84179943,3.23087585 6.07004067,0 10.0522785,0 C14.0345163,0 17.2627575,3.23087585 17.2627575,7.21636364 C17.2627575,11.2018514 14.0345163,14.4327273 10.0522785,14.4327273 Z" id="oval"></path>
                        <path d="M4.7347631,11.8494604 L-0.212197228,15.9273684 C-0.531816226,16.1908387 -0.577333781,16.6635259 -0.313863533,16.9831449 C-0.0503932851,17.3027639 0.422293943,17.3482814 0.741912941,17.0848112 L5.68887327,13.0069032 C6.00849226,12.743433 6.05400982,12.2707457 5.79053957,11.9511267 C5.52706932,11.6315077 5.0543821,11.5859902 4.7347631,11.8494604 Z" id="line"></path>
                    </g>
                    <rect id="Rectangle" x="0" y="0" width="21" height="21"></rect>
                </g>
            </g>
        </g>
    </g>
</svg>