<?xml version="1.0" encoding="UTF-8"?>
<svg width="25px" height="25px" viewBox="0 0 25 25" version="1.1" xmlns="http://www.w3.org/2000/svg" xmlns:xlink="http://www.w3.org/1999/xlink">
    <!-- Generator: Sketch 46.2 (44496) - http://www.bohemiancoding.com/sketch -->
    <title>search@1x</title>
    <desc>Created with Sketch.</desc>
    <defs></defs>
    <g id="Symbols" stroke="none" stroke-width="1" fill="none" fill-rule="evenodd">
        <g id="search">
            <g id="group" transform="translate(12.500000, 12.022727) scale(-1, 1) translate(-12.500000, -12.022727) translate(2.000000, 2.000000)" fill-rule="nonzero" fill="#4A90E2">
                <path d="M11.9669982,15.6818182 C15.8790563,15.6818182 19.0509018,12.5073841 19.0509018,8.59090909 C19.0509018,4.6744341 15.8790563,1.5 11.9669982,1.5 C8.05494007,1.5 4.88309456,4.6744341 4.88309456,8.59090909 C4.88309456,12.5073841 8.05494007,15.6818182 11.9669982,15.6818182 Z M11.9669982,17.1818182 C7.22623889,17.1818182 3.38309456,13.3355374 3.38309456,8.59090909 C3.38309456,3.84628078 7.22623889,0 11.9669982,0 C16.7077575,0 20.5509018,3.84628078 20.5509018,8.59090909 C20.5509018,13.3355374 16.7077575,17.1818182 11.9669982,17.1818182 Z" id="oval"></path>
                <path d="M5.72749037,14.2167332 L-0.161748113,19.0713855 C-0.481367111,19.3348558 -0.526884666,19.807543 -0.263414418,20.127162 C5.58303254e-05,20.446781 0.472743058,20.4922985 0.792362056,20.2288283 L6.68160054,15.3741759 C7.00121954,15.1107057 7.04673709,14.6380185 6.78326684,14.3183995 C6.5197966,13.9987805 6.04710937,13.9532629 5.72749037,14.2167332 Z" id="line"></path>
            </g>
            <rect id="Rectangle" x="0" y="0" width="25" height="25"></rect>
        </g>
    </g>
</svg>