<?xml version="1.0" encoding="UTF-8"?>
<svg width="3px" height="10px" viewBox="0 0 3 10" version="1.1" xmlns="http://www.w3.org/2000/svg" xmlns:xlink="http://www.w3.org/1999/xlink">
    <!-- Generator: Sketch 46.2 (44496) - http://www.bohemiancoding.com/sketch -->
    <title>!@1x</title>
    <desc>Created with Sketch.</desc>
    <defs></defs>
    <g id="Symbols" stroke="none" stroke-width="1" fill="none" fill-rule="evenodd">
        <g id="Outofstock" transform="translate(-10.000000, -6.000000)" fill="#D0021B">
            <path d="M12.3389356,12.6386555 L10.2380952,12.6386555 L10.2380952,6 L12.3389356,6 L12.3389356,12.6386555 Z M10,14.7114846 C10,14.5340794 10.0326794,14.3660139 10.0980392,14.2072829 C10.163399,14.048552 10.2544345,13.9108316 10.3711485,13.7941176 C10.4878624,13.6774037 10.6255828,13.5863682 10.7843137,13.5210084 C10.9430447,13.4556486 11.1111102,13.4229692 11.2885154,13.4229692 C11.4659206,13.4229692 11.6339861,13.4556486 11.7927171,13.5210084 C11.951448,13.5863682 12.0891684,13.6774037 12.2058824,13.7941176 C12.3225963,13.9108316 12.4136318,14.048552 12.4789916,14.2072829 C12.5443514,14.3660139 12.5770308,14.5340794 12.5770308,14.7114846 C12.5770308,14.8888898 12.5443514,15.0569553 12.4789916,15.2156863 C12.4136318,15.3744172 12.3225963,15.5121376 12.2058824,15.6288515 C12.0891684,15.7455655 11.951448,15.836601 11.7927171,15.9019608 C11.6339861,15.9673206 11.4659206,16 11.2885154,16 C11.1111102,16 10.9430447,15.9673206 10.7843137,15.9019608 C10.6255828,15.836601 10.4878624,15.7455655 10.3711485,15.6288515 C10.2544345,15.5121376 10.163399,15.3744172 10.0980392,15.2156863 C10.0326794,15.0569553 10,14.8888898 10,14.7114846 Z" id="!"></path>
        </g>
    </g>
</svg>