<svg xmlns="http://www.w3.org/2000/svg" width="66" height="40" viewBox="0 0 66 40">
    <g fill="none" fill-rule="evenodd">
        <path fill="#005C75" d="M0 40h66V0H0z"/>
        <g fill="#FEFEFE">
            <path d="M7.91 23.652h2.87v-.327c-.554-.07-.724-.112-1.086-1.103-.398-1.06-.861-2.312-1.301-3.55l-.69-1.95-.515.143-2.12 5.39c-.365.945-.502.994-1.13 1.07v.327h2.364v-.327l-.26-.03c-.484-.054-.503-.165-.35-.693.137-.455.274-.915.403-1.221h1.858c.158.385.358.934.494 1.28.177.453.123.568-.263.625l-.274.039v.327zm-.921-4.963h.029l.758 2.16H6.239l.75-2.16zM13.784 20.006c0-.383-.051-.45-.323-.496l-.325-.052v-.304a29.158 29.158 0 0 0 1.93-.196v3.562c0 .435.042.552.376.552h.326v.324c-.63.09-1.3.237-1.901.39l-.083-.073v-.67c-.198.145-.374.28-.606.42-.324.197-.588.307-.918.307-.876 0-1.358-.582-1.358-1.387v-2.377c0-.383-.051-.45-.322-.496l-.285-.052v-.304c.483-.027 1.343-.129 1.89-.196v3.164c0 .616.313.858.708.858.294 0 .586-.137.89-.4v-2.574M17.651 22.106c0 .804.397.955.587.955.166 0 .346-.055.546-.169l.144.314-.9.455a1.062 1.062 0 0 1-.398.11c-.81 0-1.26-.353-1.26-1.285v-2.912h-.672l-.074-.134.337-.4h.41v-.64l1.098-.829.182.088v1.38h1.037c.136.115.117.45-.072.535h-.965v2.532M21.044 19.587c.354-.35.884-.67 1.432-.67.953 0 1.48.596 1.48 1.585v2.125c0 .587.052.628.632.698v.327h-2.462v-.327c.507-.07.548-.11.548-.698v-2.01c0-.649-.363-.924-.8-.924-.29 0-.594.106-.83.345v2.59c0 .586.05.627.487.697v.327h-2.524v-.327c.7-.07.754-.11.754-.698v-5.066c0-.62-.02-.635-.684-.675v-.302a42.724 42.724 0 0 0 1.967-.37v3.373M27.24 18.916c-1.179 0-2.48.883-2.48 2.545 0 1.122.81 2.31 2.424 2.31 1.208 0 2.416-.82 2.416-2.532 0-1.219-.902-2.323-2.36-2.323m-1.033 2.124c0-1.135.445-1.69.873-1.69.671 0 1.073.807 1.073 2.207 0 1.518-.47 1.778-.85 1.778-.674 0-1.096-.977-1.096-2.295M31.846 22.627c0 .586.05.628.857.698v.327h-2.855v-.327c.66-.07.713-.112.713-.698v-2.326c0-.64-.02-.647-.694-.724v-.283a27.768 27.768 0 0 0 1.979-.378v1.042h.02c.134-.212.294-.463.49-.671.2-.212.431-.371.693-.371.4 0 .704.291.704.641 0 .348-.232.652-.496.744-.137.058-.238.019-.324-.042-.176-.142-.357-.221-.524-.221-.177 0-.388.079-.564.516v2.073M35.895 17.261a.751.751 0 0 1-.761.757.764.764 0 0 1-.763-.757c0-.427.356-.763.763-.763.425 0 .76.336.76.763m-1.314 3.04c0-.64-.02-.648-.691-.724v-.283a24.502 24.502 0 0 0 1.975-.378v3.698c0 .6.052.641.719.711v.327h-2.725v-.327c.67-.07.722-.112.722-.71V20.3M40.755 19.037l.092.15-2.412 4.019h.83c.721 0 1.002-.131 1.355-.727l.154-.261.377.14c-.188.52-.324.91-.483 1.294h-3.785l-.105-.154 2.488-4.017h-.737c-.695 0-.88.159-1.12.676l-.15.322-.376-.141a20.38 20.38 0 0 0 .386-1.52h.233c.053.154.166.219.566.219h2.687"/>
            <path d="M44.965 22.437c-.422.283-.747.406-1.134.406-.8 0-1.514-.542-1.514-1.718 1.042-.04 2.44-.138 2.584-.168.21-.04.24-.064.24-.457 0-.81-.725-1.58-1.635-1.58-1.278 0-2.409 1.126-2.409 2.637 0 1.176.814 2.213 2.23 2.213.366 0 1.186-.21 1.783-1.124l-.145-.209zm-2.602-1.784c.062-.712.451-1.256.838-1.256.4 0 .733.55.733.976 0 .204-.04.247-.196.247l-1.375.033zM45.48 22.95c0-.474.345-.82.794-.82.459 0 .804.346.804.82 0 .49-.345.82-.804.82-.45 0-.794-.33-.794-.82M53.846 23.727h-.638l-4.168-5.116h-.023v2.172c0 1.103.064 1.684.104 2.011.055.363.317.501 1.013.531v.326H47.53v-.326c.526-.02.776-.168.826-.53.047-.328.109-.909.109-2.012v-2.08c0-.669 0-.928-.191-1.177-.2-.255-.462-.32-.891-.356v-.329h1.825l4.059 4.722h.022v-1.85c0-1.102-.06-1.679-.104-2.01-.053-.369-.317-.498-1.011-.533v-.329h2.603v.33c-.527.02-.775.163-.828.532-.043.331-.104.908-.104 2.01v4.014"/>
            <path d="M58.07 22.437c-.424.283-.748.406-1.139.406-.795 0-1.507-.542-1.507-1.718 1.037-.04 2.433-.138 2.58-.168.21-.04.24-.064.24-.457 0-.81-.722-1.58-1.635-1.58-1.28 0-2.413 1.126-2.413 2.637 0 1.176.82 2.213 2.232 2.213.37 0 1.188-.21 1.785-1.124l-.144-.209zm-2.603-1.784c.06-.712.45-1.256.836-1.256.398 0 .732.55.732.976 0 .204-.037.247-.198.247l-1.37.033zM60.286 22.106c0 .804.395.955.588.955.164 0 .344-.055.542-.169l.148.314-.903.455c-.166.08-.32.11-.398.11-.805 0-1.264-.353-1.264-1.285v-2.912h-.666l-.073-.134.337-.4H59v-.64l1.106-.829.181.088v1.38h1.037c.137.115.113.45-.074.535h-.963v2.532M61.435 18.105h.069c.047 0 .079-.013.096-.037a.14.14 0 0 0 .017-.133.11.11 0 0 0-.032-.036c-.015-.01-.04-.015-.075-.015h-.075v.22zm0 .339h-.103v-.638h.205a.23.23 0 0 1 .114.022.159.159 0 0 1 .06.063.192.192 0 0 1 .022.089.219.219 0 0 1-.03.107.206.206 0 0 1-.093.078.252.252 0 0 1 .07.092l.1.187h-.115l-.082-.157-.021-.04c-.024-.043-.041-.064-.052-.064h-.075v.26zm.099.132a.435.435 0 0 0 .22-.057.437.437 0 0 0 .227-.39c0-.08-.02-.153-.058-.223a.448.448 0 1 0-.39.67zm0 .08a.512.512 0 0 1-.26-.068.51.51 0 0 1-.194-.191.523.523 0 0 1 .192-.724.518.518 0 0 1 .525 0 .524.524 0 0 1-.263.983z"/>
        </g>
    </g>
</svg>
