<svg xmlns="http://www.w3.org/2000/svg" width="66" height="40" viewBox="0 0 66 40">
    <g fill="none" fill-rule="evenodd">
        <path fill="#5C4782" d="M0 40h66V0H0z"/>
        <g fill="#FFF">
            <path d="M20.619 21.607h-1.656v-4.896c.306.057.606.118.908.167.192.032.387.055.58.064.08.004.183-.015.24-.064.71-.61 2.036-.485 2.655.203.018.02.044.034.078.061.088-.066.172-.132.258-.194.869-.633 2.12-.623 2.881.032.458.395.683.924.702 1.506.032 1.015.01 2.03.01 3.046 0 .02-.01.04-.02.075H25.61v-.262c-.003-.828.002-1.656-.016-2.484-.008-.357-.154-.66-.518-.802-.365-.144-.691-.066-.988.182a.41.41 0 0 0-.154.354c.01.958.007 1.916.008 2.873 0 .042-.01.083-.016.139h-1.63v-.237c0-.72.002-1.44-.003-2.16a2.552 2.552 0 0 0-.046-.515c-.076-.359-.276-.61-.66-.683-.35-.066-.718.068-.911.362a.467.467 0 0 0-.053.243c-.004.908-.003 1.815-.003 2.722v.268M9.038 19.143c0 .216-.008.432.004.647.004.078.039.17.09.226.357.385 1.016.5 1.479.258.463-.243.669-.644.662-1.151-.006-.49-.217-.882-.668-1.102-.472-.23-.926-.147-1.35.148-.159.112-.243.25-.221.456.018.17.003.345.004.518M7.38 14.91l1.657-.262v2.226c.31-.097.591-.213.884-.272 1.533-.309 2.969.871 2.982 2.43.01 1.094-.411 1.95-1.404 2.46-.75.385-1.517.337-2.277-.012a.747.747 0 0 0-.383-.045c-.422.051-.842.122-1.263.186-.159.024-.212-.037-.212-.201.005-2.117.003-4.234.004-6.351 0-.057.008-.113.012-.16M29.24 19.14c0 .143.02.29-.003.43-.06.36.145.548.428.685.309.15.636.191.966.09.522-.158.793-.538.85-1.059.054-.5-.118-.927-.557-1.204-.437-.277-.891-.24-1.332.005-.24.134-.408.31-.355.622.024.14.004.287.004.43m-1.635 2.473v-6.704l1.63-.258v2.252c.072-.024.119-.034.16-.055 1.597-.782 3.327.044 3.675 1.777.288 1.432-.59 2.861-2.051 3.096a2.635 2.635 0 0 1-1.584-.236.659.659 0 0 0-.38-.049c-.475.09-.944.204-1.45.177M16.944 19.138v-.39c0-.439-.114-.608-.53-.772a1.27 1.27 0 0 0-.87-.045c-.53.17-.799.563-.843 1.093-.043.51.145.945.61 1.2.474.258.946.193 1.392-.101.177-.117.27-.266.245-.489-.018-.164-.004-.33-.004-.496m1.636-2.47v4.99c-.43-.067-.844-.104-1.245-.201a1.043 1.043 0 0 0-.732.058c-1.596.71-3.361-.35-3.521-2.096-.115-1.25.523-2.33 1.625-2.737.64-.236 1.292-.23 1.895.07.366.183.707.155 1.068.1.298-.047.593-.119.91-.183M46.172 19.136c0-.209.008-.418-.004-.626a.401.401 0 0 0-.085-.23c-.34-.383-.974-.516-1.435-.305-.476.218-.706.612-.722 1.115-.017.495.178.909.634 1.145.462.24.922.18 1.355-.1.182-.119.29-.267.261-.502-.02-.164-.004-.331-.004-.497m1.639-2.467v4.976c-.355-.045-.703-.053-1.03-.14a1.693 1.693 0 0 0-1.109.064c-1.571.594-3.21-.473-3.36-2.145-.117-1.3.57-2.408 1.72-2.775.611-.195 1.23-.187 1.794.102.372.19.72.155 1.089.097.298-.046.592-.117.896-.18M34.865 19.14c-.002.698.477 1.217 1.128 1.221.641.004 1.14-.524 1.145-1.213.006-.676-.477-1.178-1.136-1.18-.67 0-1.135.477-1.137 1.171m3.835.005c.001 1.513-1.135 2.638-2.664 2.639-1.616 0-2.754-1.089-2.754-2.637 0-1.536 1.126-2.62 2.718-2.619 1.577.002 2.7 1.09 2.7 2.617M40.597 21.61h-1.652v-4.668l1.64-.258.027.471c.508-.386 1.048-.605 1.685-.585v1.553c-.174.024-.347.035-.514.073a4.418 4.418 0 0 0-.599.18c-.411.159-.639.407-.6.909.053.687.013 1.382.013 2.073v.251M54.384 22.802c-.056.512-.095.536-.577.585-1.061.11-2.12.117-3.181-.004a14.357 14.357 0 0 1-2.576-.528c.119-.13.213-.256.331-.351.052-.042.161-.043.234-.024 1.23.32 2.48.494 3.75.47.613-.013 1.223-.097 1.835-.147.056-.005.112 0 .184 0M54.105 23.95c0 .035.003.05 0 .063-.116.48-.116.487-.618.495-.643.011-1.286.01-1.929.007a.355.355 0 0 1-.218-.067c-.309-.273-.674-.32-1.037-.198-.378.127-.727.04-1.08-.045-.588-.14-1.17-.298-1.784-.456.083-.139.147-.226.19-.323.066-.145.157-.141.296-.105.642.166 1.282.345 1.932.471 1.284.249 2.582.297 3.885.177.115-.01.23-.013.363-.02M54.69 21.613c-.036.154-.057.297-.105.43a.23.23 0 0 1-.15.124c-1.115.202-2.238.296-3.367.188-.646-.062-1.287-.175-1.93-.268-.067-.01-.132-.035-.238-.065.186-.135.339-.253.5-.359a.24.24 0 0 1 .163-.023c1.69.335 3.375.303 5.059-.04.012-.002.026.005.067.013M54.978 20.383c-.035.157-.052.3-.1.431a.26.26 0 0 1-.159.142c-1.495.357-3.005.46-4.604.243.334-.167.542-.46.902-.433 1.236.092 2.448-.05 3.649-.331.096-.023.195-.033.312-.052M58.647 9.828c-.088.308-.223.39-.473.349-.716-.121-1.436-.22-2.175-.33.014-.191.025-.36.041-.529.015-.162-.047-.248-.213-.292-.29-.076-.405-.253-.342-.503.012-.049.09-.116.137-.115.275 0 .476.212.436.476-.03.203.053.255.231.3.786.205 1.568.427 2.358.644M55.234 19.214v.083c-.011.345-.18.481-.536.538-.932.147-1.851.383-2.803.394-.072 0-.144 0-.226-.018.292-.198.47-.514.902-.561.858-.095 1.706-.279 2.559-.425.027-.005.056-.006.104-.011M52.883 19.022c.204-.345.37-.662.833-.697.53-.04 1.053-.156 1.58-.236.061-.01.126-.001.191-.001-.064.497-.065.492-.521.57-.631.11-1.26.228-1.89.341-.056.01-.113.014-.193.023M47.008 24.672l.204-.484 1.978.565c-.098.114-.205.249-.325.37-.032.032-.11.044-.158.03-.554-.152-1.107-.312-1.7-.48M51.891 25.6l-.14-.5h2.07c-.036.145-.064.285-.108.42-.011.035-.072.076-.11.076-.568.005-1.136.003-1.712.003M55.75 16.932c-.043.197-.067.338-.107.475-.01.036-.063.08-.1.084-.623.073-1.246.14-1.88.21.063-.152.12-.306.191-.454.022-.044.08-.093.126-.1.57-.073 1.143-.14 1.77-.215M55.958 15.89c-.053.46-.052.463-.496.506-.43.042-.86.077-1.327.118.06-.169.108-.32.168-.467a.154.154 0 0 1 .11-.079c.494-.036.99-.066 1.486-.097.02 0 .04.013.06.02M48.425 25.616c-.015.035-.02.049-.027.06-.263.394-.265.398-.72.256-.322-.1-.64-.212-.974-.322l.15-.494 1.571.5M56.204 14.758l-.107.524-1.565.077c.047-.157.087-.304.138-.447.011-.032.059-.072.092-.074.472-.03.945-.054 1.442-.08M51.965 26.183h1.574c-.047.18-.09.344-.133.515-.435 0-.86.004-1.285-.006-.043 0-.11-.081-.122-.135-.025-.117-.023-.241-.034-.374M56.313 14.222h-1.415c.065-.504.073-.513.565-.516.308-.003.616 0 .948 0l-.098.516M56.597 12.625c-.023.524-.023.523-.5.517-.295-.004-.59 0-.91 0 .041-.158.067-.292.115-.417a.183.183 0 0 1 .135-.095c.382-.008.763-.005 1.16-.005M47.855 26.509l-.248.47c-.343-.117-.683-.228-1.017-.356-.046-.018-.09-.117-.085-.175.01-.119.055-.235.09-.366l1.26.427M52.006 27.263h1.246c-.041.16-.07.298-.116.43-.014.04-.074.093-.114.094-.344.007-.688.004-1.055.004l.039-.528M56.823 11.545l-.1.521h-1.25c.037-.163.06-.301.104-.433.013-.039.082-.084.126-.084.36-.007.72-.004 1.12-.004M56.994 10.53c-.02.144-.03.278-.065.406-.01.039-.092.084-.14.083-.344-.009-.688-.029-1.034-.045-.004-.032-.013-.054-.009-.072.092-.434.093-.435.54-.426.108.002.216.006.323.014.121.01.241.025.385.04M47.387 27.422c-.174.488-.174.488-.636.332l-.102-.035c-.463-.163-.463-.163-.264-.649l1.002.352M55.39 24.887l.04.517-.979.135-.107-.51 1.046-.142M50.121 27.556c-.31-.059-.598-.106-.882-.174-.045-.01-.082-.108-.098-.171-.028-.116-.038-.236-.06-.38.33.06.633.113.933.176.041.009.099.067.102.107.013.133.005.268.005.442M52.943 28.333c-.075.526-.075.527-.533.508l-.535-.024.048-.484h1.02zM50.075 25.966v.528l-1.096-.213c.068-.14.107-.258.179-.353.041-.055.138-.107.203-.099.234.03.465.087.714.137M54.552 26.114l.936-.119c.014.147.038.28.031.413-.002.045-.077.115-.127.124-.233.038-.469.06-.727.09l-.113-.508M46.149 28.051l.87.312-.18.49c-.25-.09-.488-.17-.72-.263-.034-.014-.067-.093-.06-.136.016-.127.054-.25.09-.403M49.274 27.927l.88.159v.53c-.237-.044-.469-.082-.698-.132-.04-.01-.089-.067-.1-.11-.034-.137-.052-.277-.082-.447M54.87 27.713l-.1-.513.812-.095c.02.18.039.333.06.51l-.771.098M51.775 29.87l.052-.513.838.055c-.04.152-.069.29-.117.422-.013.037-.084.076-.127.075-.207-.005-.414-.024-.646-.04M54.48 24.42c.115-.617.116-.617.805-.636l.055.498-.86.138M46.488 29.799l-.66-.241.11-.517.727.266-.177.492M50.204 29.165v.476c-.553.052-.737-.108-.699-.615.184.032.366.062.548.096.048.009.094.027.15.043M55.684 28.203l.05.517c-.196.023-.372.05-.548.06-.041.003-.113-.043-.123-.08-.035-.128-.05-.262-.075-.414l.696-.083M45.395 31.875l.155-.86c.13.133.42.036.388.29-.065.52-.206.648-.543.57M51.702 30.405l.697.057c-.072.176-.096.387-.213.475-.094.07-.371.046-.44-.039-.085-.102-.035-.313-.044-.493M55.287 29.879l-.09-.513.598-.056.03.51-.538.059M45.637 30.556l.096-.523.588.22-.178.487-.506-.184M49.706 30.152c.522-.025.6.059.532.556-.512-.02-.495.026-.532-.556M55.935 30.921l-.433.038-.097-.502.476-.057.054.521M50.372 31.887c-.26.067-.39.01-.403-.219-.007-.14-.058-.28-.097-.45l.5.056v.613zM55.258 23.153l-.498.095c-.013-.477.069-.585.448-.584l.05.489M51.619 31.937v-.444h.5c-.01.51-.093.569-.5.444M56.622 8.639c-.154-.014-.243-.096-.24-.253.003-.155.087-.248.246-.247.17 0 .26.097.254.263-.006.157-.104.232-.26.237M56.065 31.506l.055.461c-.422.08-.422.08-.5-.429l.445-.032M50.05 25.428l-.513-.091.487-.435.026.526"/>
        </g>
    </g>
</svg>
