<?xml version="1.0" encoding="UTF-8"?>
<svg width="25px" height="25px" viewBox="0 0 25 25" version="1.1" xmlns="http://www.w3.org/2000/svg" xmlns:xlink="http://www.w3.org/1999/xlink">
    <!-- Generator: Sketch 46.2 (44496) - http://www.bohemiancoding.com/sketch -->
    <title>scan@1x</title>
    <desc>Created with Sketch.</desc>
    <defs></defs>
    <g id="Symbols" stroke="none" stroke-width="1" fill="none" fill-rule="evenodd">
        <g id="scan" fill-rule="nonzero" fill="#4A90E2">
            <path d="M5,13.25 C4.58578644,13.25 4.25,12.9142136 4.25,12.5 C4.25,12.0857864 4.58578644,11.75 5,11.75 L21,11.75 C21.4142136,11.75 21.75,12.0857864 21.75,12.5 C21.75,12.9142136 21.4142136,13.25 21,13.25 L5,13.25 Z M3.75,8 L2.25,8 L2.25,4 C2.25,3.03350169 3.03350169,2.25 4,2.25 L8,2.25 L8,3.75 L4,3.75 C3.86192881,3.75 3.75,3.86192881 3.75,4 L3.75,8 Z M21.5,8 L21.5,4 C21.5,3.86192881 21.3880712,3.75 21.25,3.75 L17.25,3.75 L17.25,2.25 L21.25,2.25 C22.2164983,2.25 23,3.03350169 23,4 L23,8 L21.5,8 Z M3.75,17.25 L3.75,21.25 C3.75,21.3880712 3.86192881,21.5 4,21.5 L8,21.5 L8,23 L4,23 C3.03350169,23 2.25,22.2164983 2.25,21.25 L2.25,17.25 L3.75,17.25 Z M21.5,17.25 L23,17.25 L23,21.25 C23,22.2164983 22.2164983,23 21.25,23 L17.25,23 L17.25,21.5 L21.25,21.5 C21.3880712,21.5 21.5,21.3880712 21.5,21.25 L21.5,17.25 Z" id="Combined-Shape"></path>
        </g>
    </g>
</svg>