<svg xmlns="http://www.w3.org/2000/svg" width="76" height="40" viewBox="0 0 76 40">
    <g fill="none" fill-rule="evenodd">
        <path fill="#3CB372" d="M0 40h76V0H0z"/>
        <path fill="#00A064" d="M71.078 10.01c-2.731 0-4.945-2.205-4.945-4.925 0-.123.006-.244.015-.365H10.242c.01.12.015.242.015.365 0 2.72-2.213 4.925-4.944 4.925a4.99 4.99 0 0 1-.823-.07v20.28a4.99 4.99 0 0 1 .823-.07c2.73 0 4.944 2.205 4.944 4.925 0 .232-.017.46-.048.683h55.973a4.958 4.958 0 0 1-.049-.683c0-2.72 2.214-4.924 4.945-4.924.166 0 .33.008.492.024V9.985a5.023 5.023 0 0 1-.492.025"/>
        <path fill="#007A51" d="M48.401 20.34c0 5.676-4.62 10.278-10.32 10.278S27.76 26.016 27.76 20.34c0-5.677 4.62-10.279 10.32-10.279S48.4 14.663 48.4 20.34"/>
        <path fill="#FEFEFE" d="M40.178 22.624c0-.44-.159-.82-.477-1.136-.317-.316-.84-.598-1.564-.846-1.003-.301-1.761-.705-2.272-1.21-.512-.504-.768-1.176-.768-2.018 0-.816.235-1.481.704-1.996.47-.514 1.117-.823 1.941-.927v-1.64h1.177v1.647c.835.119 1.481.474 1.941 1.065.46.591.69 1.384.69 2.378h-1.461c0-.672-.157-1.217-.47-1.632-.312-.416-.747-.624-1.303-.624-.587 0-1.025.152-1.315.457-.29.304-.436.72-.436 1.25 0 .48.15.868.45 1.165.3.297.844.58 1.629.846 1.018.327 1.773.734 2.264 1.22.492.488.738 1.15.738 1.986 0 .85-.256 1.527-.767 2.03-.512.502-1.215.8-2.109.893v1.425H37.6V25.54c-.854-.09-1.554-.4-2.1-.931-.547-.532-.81-1.313-.79-2.341l.015-.038h1.415c0 .762.192 1.305.577 1.63.385.323.858.485 1.42.485.64 0 1.14-.152 1.501-.456.36-.305.54-.726.54-1.265"/>
        <path fill="#FFF" d="M0 0h38.18v40H0z" opacity=".1"/>
    </g>
</svg>
