<?xml version="1.0" encoding="UTF-8"?>
<svg width="25px" height="25px" viewBox="0 0 25 25" version="1.1" xmlns="http://www.w3.org/2000/svg" xmlns:xlink="http://www.w3.org/1999/xlink">
    <!-- Generator: Sketch 46.2 (44496) - http://www.bohemiancoding.com/sketch -->
    <title>checkout@1x</title>
    <desc>Created with Sketch.</desc>
    <defs></defs>
    <g id="Symbols" stroke="none" stroke-width="1" fill="none" fill-rule="evenodd">
        <g id="checkout">
            <g>
                <g id="cart" transform="translate(1.000000, 1.000000)" fill-rule="nonzero" fill="#6980EC">
                    <polygon id="Path-4" points="2.29347826 1.18478261 2.29347826 15.9673913 20 15.9673913 20 14.4673913 3.79347826 14.4673913 3.79347826 -0.315217391 0 -0.315217391 0 1.18478261"></polygon>
                    <polygon id="Path-5" points="18.8152174 4.66304348 18.8152174 11.0460073 2.9844514 12.2958046 3.10250512 13.7911519 20.3152174 12.4322535 20.3152174 3.16304348 3.47826087 3.16304348 3.47826087 4.66304348"></polygon>
                    <path d="M6.08695652,20.75 C4.95237155,20.75 4.0326087,19.8302371 4.0326087,18.6956522 C4.0326087,17.5610672 4.95237155,16.6413043 6.08695652,16.6413043 C7.2215415,16.6413043 8.14130435,17.5610672 8.14130435,18.6956522 C8.14130435,19.8302371 7.2215415,20.75 6.08695652,20.75 Z M6.08695652,19.25 C6.39311437,19.25 6.64130435,19.00181 6.64130435,18.6956522 C6.64130435,18.3894943 6.39311437,18.1413043 6.08695652,18.1413043 C5.78079867,18.1413043 5.5326087,18.3894943 5.5326087,18.6956522 C5.5326087,19.00181 5.78079867,19.25 6.08695652,19.25 Z" id="Oval-5"></path>
                    <path d="M16.0869565,20.75 C14.9523715,20.75 14.0326087,19.8302371 14.0326087,18.6956522 C14.0326087,17.5610672 14.9523715,16.6413043 16.0869565,16.6413043 C17.2215415,16.6413043 18.1413043,17.5610672 18.1413043,18.6956522 C18.1413043,19.8302371 17.2215415,20.75 16.0869565,20.75 Z M16.0869565,19.25 C16.3931144,19.25 16.6413043,19.00181 16.6413043,18.6956522 C16.6413043,18.3894943 16.3931144,18.1413043 16.0869565,18.1413043 C15.7807987,18.1413043 15.5326087,18.3894943 15.5326087,18.6956522 C15.5326087,19.00181 15.7807987,19.25 16.0869565,19.25 Z" id="Oval-5"></path>
                </g>
                <rect id="bounds" x="0" y="0" width="25" height="25"></rect>
            </g>
        </g>
    </g>
</svg>