<?xml version="1.0" encoding="UTF-8"?>
<svg width="20px" height="20px" viewBox="0 0 20 20" version="1.1" xmlns="http://www.w3.org/2000/svg" xmlns:xlink="http://www.w3.org/1999/xlink">
    <!-- Generator: Sketch 46.2 (44496) - http://www.bohemiancoding.com/sketch -->
    <title>CheckStock@1x</title>
    <desc>Created with Sketch.</desc>
    <defs></defs>
    <g id="Symbols" stroke="none" stroke-width="1" fill="none" fill-rule="evenodd">
        <g id="CheckStock">
            <g>
                <rect id="Rectangle-3-Copy" x="0" y="0" width="20" height="20"></rect>
                <path d="M1.99004331,4.01230021 C3.81388072,1.57641209 6.72284497,0 10,0 C15.5228475,0 20,4.4771525 20,10 C20,15.5228475 15.5228475,20 10,20 C6.75631955,20 3.87334651,18.455628 2.04627109,16.0620743 L3.23859801,15.1519334 C4.83826363,17.2475697 7.31390703,18.5 10,18.5 C14.6944204,18.5 18.5,14.6944204 18.5,10 C18.5,5.30557963 14.6944204,1.5 10,1.5 C7.28598372,1.5 4.78743436,2.77885105 3.19077135,4.91132867 L1.99004331,4.01230021 Z" id="Oval-13" fill="#4A90E2" fill-rule="nonzero"></path>
                <path d="M10.6843059,9.25 L2.55555556,9.25 C2.14134199,9.25 1.80555556,9.58578644 1.80555556,10 C1.80555556,10.4142136 2.14134199,10.75 2.55555556,10.75 L10.9326897,10.75 L8.71745214,12.9702722 C8.42489156,13.2634977 8.42543058,13.7383711 8.71865606,14.0309317 C9.01188155,14.3234923 9.48675498,14.3229533 9.77931555,14.0297278 L13.1471871,10.654202 C13.4392782,10.3614471 13.4392782,9.8875013 13.1471871,9.5947464 L9.53093171,5.97027222 C9.23837113,5.67704673 8.7634977,5.67650772 8.47027222,5.96906829 C8.17704673,6.26162887 8.17650772,6.7365023 8.46906829,7.02972778 L10.6843059,9.25 Z" id="Combined-Shape" fill="#4A90E2" fill-rule="nonzero"></path>
            </g>
        </g>
    </g>
</svg>