<svg xmlns="http://www.w3.org/2000/svg" width="29" height="22" viewBox="0 0 29 22">
    <g fill="#3F4245" fill-rule="nonzero">
        <path d="M10.344 1.75L2.01 11.452l8.314 8.798H27.25V1.75H10.344zM10 .25h18a.75.75 0 0 1 .75.75v20a.75.75 0 0 1-.75.75H10a.75.75 0 0 1-.545-.235l-9-9.524a.75.75 0 0 1-.024-1.004l9-10.476A.75.75 0 0 1 10 .25z"/>
        <path d="M22.03 8.03l-8 8a.75.75 0 0 1-1.06-1.06l8-8a.75.75 0 0 1 1.06 1.06z"/>
        <path d="M12.97 8.03l8 8a.75.75 0 0 0 1.06-1.06l-8-8a.75.75 0 0 0-1.06 1.06z"/>
    </g>
</svg>
