<svg xmlns="http://www.w3.org/2000/svg" width="54" height="40" viewBox="0 0 54 40">
    <g fill="none" fill-rule="evenodd">
        <path fill="#1976D2" fill-rule="nonzero" d="M49.645 40H4.355C1.916 40 0 38.087 0 35.652V4.348C0 1.913 1.916 0 4.355 0h45.29C52.084 0 54 1.913 54 4.348v31.304C54 38.087 52.084 40 49.645 40z"/>
        <path fill="#263238" fill-rule="nonzero" d="M0 4.348h54v8.696H0z"/>
        <path fill="#E0F7FA" fill-rule="nonzero" d="M6.968 14.783h40.065v6.957H6.968z"/>
        <path stroke="#1565C0" d="M7.403 17.913l2.7-2.696M9.32 21.304l6.096-6.087M20.729 15.217l-6.097 6.087M26.042 15.217l-6.097 6.087M31.355 15.217l-6.097 6.087M36.668 15.217l-6.097 6.087M42.068 15.217l-6.097 6.087M46.597 16l-5.313 5.304"/>
        <g stroke="#65A5EE">
            <path d="M10.103 17.826l2.613-2.609M18.029 15.217l-2.613 2.61M23.429 15.217l-2.613 2.61M28.742 15.217l-2.613 2.61M34.055 15.217l-2.613 2.61M39.368 15.217l-2.613 2.61M44.68 15.217l-2.612 2.61M46.597 18.609l-2.7 2.695M9.232 18.696l-1.829 1.826M14.545 18.696l-2.613 2.608M17.332 21.304l2.613-2.608M22.645 21.304l2.613-2.608M27.958 21.304l2.613-2.608M33.271 21.304l2.613-2.608M38.584 21.304l2.613-2.608"/>
        </g>
        <path fill="#65A5EE" fill-rule="nonzero" d="M40.935 27.391c.61 0 1.22.174 1.742.522-.783.522-1.306 1.478-1.306 2.522h2.613c0 1.043-.523 1.913-1.307 2.522a3.144 3.144 0 0 1-1.742.521c-1.654 0-3.048-1.391-3.048-3.043 0-1.652 1.394-3.044 3.048-3.044z"/>
        <path fill="#BFD9F3" fill-rule="nonzero" d="M41.371 30.435c0-1.044.523-1.913 1.306-2.522a3.144 3.144 0 0 1 1.742-.522c1.655 0 3.049 1.392 3.049 3.044 0 1.652-1.394 3.043-3.049 3.043-.61 0-1.219-.174-1.742-.521.784-.522 1.307-1.479 1.307-2.522H41.37z"/>
        <g stroke="#E0E0E0">
            <path d="M15.757 27.391h4.275M7.205 27.391h-2.85M15.044 27.391H7.918M20.032 30.87h-5.7M13.619 30.87H4.355M20.032 32.609h-7.126M4.355 32.609h7.839"/>
        </g>
    </g>
</svg>
