<svg xmlns="http://www.w3.org/2000/svg" width="24" height="24" viewBox="0 0 24 24">
    <g fill="none" fill-rule="evenodd">
        <path fill="#FFF" d="M1.423 11.644l10.18-10.18A5 5 0 0 1 15.138 0h6.772a2 2 0 0 1 2 2v6.767a5 5 0 0 1-1.465 3.536l-10.13 10.13a2 2 0 0 1-2.819.008l-8.063-7.96a2 2 0 0 1-.01-2.837zM20 6a2 2 0 1 0 0-4 2 2 0 0 0 0 4z"/>
        <path fill="#1E67E5" d="M11.236 14.658c.261-.26.399-.548.413-.862.015-.315-.089-.725-.311-1.23-.455-.977-.695-1.799-.72-2.466-.026-.667.252-1.292.836-1.875.541-.542 1.158-.812 1.851-.812.693 0 1.363.262 2.01.788l1.04-1.04.769.769-1.05 1.049c.484.65.693 1.333.627 2.047-.066.714-.414 1.378-1.042 1.994l-.039.01-1.377-1.378c.38-.38.595-.752.645-1.114.05-.363-.06-.68-.331-.95-.277-.277-.563-.404-.858-.38-.295.025-.574.169-.839.433-.251.251-.383.527-.396.827-.013.3.097.717.329 1.252.431.992.66 1.82.684 2.482.024.662-.251 1.28-.825 1.853-.56.561-1.18.837-1.86.827-.68-.01-1.348-.28-2.002-.812l-.957.957-.768-.769.952-.952c-.542-.664-.826-1.375-.853-2.134-.028-.759.32-1.486 1.041-2.182l.034-.015 1.378 1.378c-.432.432-.642.84-.631 1.225.011.385.17.73.476 1.037.293.293.596.44.909.44.312 0 .6-.132.865-.397z"/>
    </g>
</svg>
