<svg xmlns="http://www.w3.org/2000/svg" width="30" height="30" viewBox="0 0 30 30">
    <g fill="none" fill-rule="evenodd">
        <path fill="#879CBF" d="M1.424 14.732l13.27-13.268A5 5 0 0 1 18.23 0h9.336a2 2 0 0 1 2 2v9.329a5 5 0 0 1-1.465 3.536L14.897 28.067a2 2 0 0 1-2.82.009L1.434 17.57a2 2 0 0 1-.01-2.838z"/>
        <circle cx="23.051" cy="5.991" r="2.473" fill="#FFF"/>
        <path fill="#FFF" d="M13.514 17.477c.28-.28.427-.588.443-.925.015-.336-.096-.776-.334-1.318-.487-1.046-.744-1.926-.772-2.641-.027-.715.271-1.385.896-2.01.58-.58 1.241-.87 1.984-.87.742 0 1.46.282 2.154.845L19 9.444l.823.824-1.124 1.123c.518.698.742 1.429.671 2.194-.07.764-.443 1.477-1.116 2.136l-.042.01-1.476-1.476c.408-.407.638-.805.692-1.193.053-.389-.065-.728-.355-1.018-.297-.297-.603-.432-.92-.407-.315.026-.615.18-.898.464-.269.27-.41.564-.424.886-.014.32.103.768.352 1.34.462 1.064.707 1.95.733 2.66.025.71-.269 1.372-.883 1.986-.601.601-1.266.896-1.994.886-.729-.01-1.444-.3-2.144-.87l-1.026 1.025-.823-.823 1.02-1.02c-.58-.712-.885-1.474-.914-2.287-.03-.813.342-1.592 1.116-2.338l.036-.016 1.476 1.476c-.463.463-.688.9-.676 1.313.012.413.182.783.51 1.111.315.314.64.471.974.471.335 0 .644-.141.927-.424z"/>
    </g>
</svg>
