<svg xmlns="http://www.w3.org/2000/svg" width="32" height="32" viewBox="0 0 32 32">
    <g fill="none" fill-rule="evenodd">
        <path d="M0 0h32v32H0z"/>
        <g fill-rule="nonzero">
            <path fill="#4A90E2" d="M6.25 6A.75.75 0 0 1 7 5.25h18a.75.75 0 0 1 .75.75v21.083c0 1.48-1.232 2.667-2.738 2.667H8.988c-1.506 0-2.738-1.188-2.738-2.667V6zm1.5.75v20.333c0 .639.548 1.167 1.238 1.167h14.024c.69 0 1.238-.528 1.238-1.167V6.75H7.75z"/>
            <path fill="#4A90E2" d="M20.75 6a.75.75 0 0 1-.75.75h-8a.75.75 0 0 1-.75-.75V3.778a2.531 2.531 0 0 1 2.535-2.528h4.43c1.4 0 2.535 1.13 2.535 2.528V6zm-1.5-.75V3.778c0-.567-.463-1.028-1.035-1.028h-4.43c-.572 0-1.035.46-1.035 1.028V5.25h6.5z"/>
            <path fill="#5E2F8F" d="M5 6.5h22v-1H5z"/>
            <path fill="#4A90E2" d="M19.25 10v15a.75.75 0 1 0 1.5 0V10a.75.75 0 1 0-1.5 0zM5 6.75h22a.75.75 0 1 0 0-1.5H5a.75.75 0 0 0 0 1.5zM11.25 10v15a.75.75 0 1 0 1.5 0V10a.75.75 0 0 0-1.5 0zM15.25 10v15a.75.75 0 1 0 1.5 0V10a.75.75 0 1 0-1.5 0z"/>
        </g>
    </g>
</svg>
