<svg xmlns="http://www.w3.org/2000/svg" width="22" height="26" viewBox="0 0 22 26">
    <g fill="none" fill-rule="nonzero">
        <path fill="#4A90E2" d="M2.068 4.556a.75.75 0 0 1 .75-.75h16.364a.75.75 0 0 1 .75.75v18.74c0 1.366-1.154 2.454-2.557 2.454H4.625c-1.403 0-2.557-1.088-2.557-2.454V4.556zm1.5.75v17.99c0 .517.464.954 1.057.954h12.75c.593 0 1.057-.437 1.057-.954V5.306H3.568z"/>
        <path fill="#4A90E2" d="M15.386 4.556a.75.75 0 0 1-.75.75H7.364a.75.75 0 0 1-.75-.75V2.58C6.614 1.29 7.68.25 8.987.25h4.026c1.307 0 2.373 1.039 2.373 2.33v1.976zm-1.5-1.976c0-.454-.386-.83-.873-.83H8.987c-.487 0-.873.376-.873.83v1.226h5.772V2.58z"/>
        <path fill="#5E2F8F" d="M1 5.056h20v-1H1z"/>
        <path fill="#4A90E2" d="M13.886 8.111v13.333a.75.75 0 0 0 1.5 0V8.111a.75.75 0 1 0-1.5 0zM1 5.306h20a.75.75 0 1 0 0-1.5H1a.75.75 0 1 0 0 1.5zM6.614 8.111v13.333a.75.75 0 1 0 1.5 0V8.111a.75.75 0 1 0-1.5 0zM10.25 8.111v13.333a.75.75 0 1 0 1.5 0V8.111a.75.75 0 1 0-1.5 0z"/>
    </g>
</svg>
