<svg xmlns="http://www.w3.org/2000/svg" width="55" height="37" viewBox="0 0 55 37">
    <g fill="none" fill-rule="evenodd" stroke="#4A90E2" stroke-width="1.5">
        <rect width="53.5" height="35.167" x=".75" y=".75" rx="5"/>
        <path stroke-linecap="square" d="M17.46.873v5.233m0 18.768v10.92M.873 17.46h4.213m25.914 0h23.127"/>
        <path d="M17.957 16.89c-.032-1.491-.027-2.523.016-3.096.127-1.729.536-2.938 1.227-3.629 1.55-1.55 4.05-1.563 5.584-.028 1.534 1.534 1.521 4.034-.029 5.584-.705.706-1.98 1.09-3.824 1.154-.571.02-1.563.024-2.974.015z"/>
        <path stroke-linecap="square" d="M18.333 17.46l6.111 6.111-6.11-6.11z"/>
        <path d="M17.837 16.89c.032-1.491.026-2.523-.016-3.096-.127-1.729-.536-2.938-1.227-3.629-1.55-1.55-4.05-1.563-5.584-.028-1.535 1.534-1.522 4.034.028 5.584.706.706 1.98 1.09 3.824 1.154.572.02 1.563.024 2.975.015z"/>
        <path stroke-linecap="square" d="M17.46 17.46l-6.11 6.111 6.11-6.11z"/>
        <circle cx="35.357" cy="28.373" r="1.31"/>
        <circle cx="47.579" cy="28.373" r="1.31"/>
        <circle cx="41.468" cy="28.373" r="1.31"/>
    </g>
</svg>
