<?xml version="1.0" encoding="UTF-8"?>
<svg width="23px" height="23px" viewBox="0 0 23 23" version="1.1" xmlns="http://www.w3.org/2000/svg" xmlns:xlink="http://www.w3.org/1999/xlink">
    <!-- Generator: Sketch 46.2 (44496) - http://www.bohemiancoding.com/sketch -->
    <title>AllProduct@1x</title>
    <desc>Created with Sketch.</desc>
    <defs></defs>
    <g id="Symbols" stroke="none" stroke-width="1" fill="none" fill-rule="evenodd">
        <g id="categories" transform="translate(-18.000000, -37.000000)" fill="#66A0E5">
            <g id="AllProduct" transform="translate(17.000000, 36.000000)">
                <g id="more">
                    <g transform="translate(12.500000, 12.500000) rotate(90.000000) translate(-12.500000, -12.500000) " fill-rule="nonzero">
                        <g transform="translate(12.500000, 12.500000) rotate(90.000000) translate(-12.500000, -12.500000) " id="Group-8">
                            <g transform="translate(1.263158, 1.263158)">
                                <path d="M15.1421053,21.2368421 L21.2368421,21.2368421 L21.2368421,15.1421053 L15.1421053,15.1421053 L15.1421053,21.2368421 Z M14.6421053,13.6421053 L21.7368421,13.6421053 C22.2891269,13.6421053 22.7368421,14.0898205 22.7368421,14.6421053 L22.7368421,21.7368421 C22.7368421,22.2891269 22.2891269,22.7368421 21.7368421,22.7368421 L14.6421053,22.7368421 C14.0898205,22.7368421 13.6421053,22.2891269 13.6421053,21.7368421 L13.6421053,14.6421053 C13.6421053,14.0898205 14.0898205,13.6421053 14.6421053,13.6421053 Z" id="Rectangle-28"></path>
                                <path d="M1.5,15.1421053 L1.5,21.2368421 L7.59473684,21.2368421 L7.59473684,15.1421053 L1.5,15.1421053 Z M1,13.6421053 L8.09473684,13.6421053 C8.64702159,13.6421053 9.09473684,14.0898205 9.09473684,14.6421053 L9.09473684,21.7368421 C9.09473684,22.2891269 8.64702159,22.7368421 8.09473684,22.7368421 L1,22.7368421 C0.44771525,22.7368421 -1.70872146e-15,22.2891269 -1.77635684e-15,21.7368421 L-1.77635684e-15,14.6421053 C-1.95501452e-15,14.0898205 0.44771525,13.6421053 1,13.6421053 Z" id="Rectangle-28"></path>
                                <path d="M1.5,1.5 L1.5,7.59473684 L7.59473684,7.59473684 L7.59473684,1.5 L1.5,1.5 Z M1,1.77635684e-15 L8.09473684,1.77635684e-15 C8.64702159,1.67490378e-15 9.09473684,0.44771525 9.09473684,1 L9.09473684,8.09473684 C9.09473684,8.64702159 8.64702159,9.09473684 8.09473684,9.09473684 L1,9.09473684 C0.44771525,9.09473684 -1.70872146e-15,8.64702159 -1.77635684e-15,8.09473684 L-1.77635684e-15,1 C-2.06603682e-15,0.44771525 0.44771525,1.54474299e-15 1,1.77635684e-15 Z" id="Rectangle-28"></path>
                                <path d="M15.1421053,7.59473684 L21.2368421,7.59473684 L21.2368421,1.5 L15.1421053,1.5 L15.1421053,7.59473684 Z M14.6421053,3.55271368e-15 L21.7368421,3.55271368e-15 C22.2891269,3.45126062e-15 22.7368421,0.44771525 22.7368421,1 L22.7368421,8.09473684 C22.7368421,8.64702159 22.2891269,9.09473684 21.7368421,9.09473684 L14.6421053,9.09473684 C14.0898205,9.09473684 13.6421053,8.64702159 13.6421053,8.09473684 L13.6421053,1 C13.6421053,0.44771525 14.0898205,3.65416674e-15 14.6421053,3.55271368e-15 Z" id="Rectangle-28"></path>
                            </g>
                        </g>
                    </g>
                </g>
            </g>
        </g>
    </g>
</svg>