<svg xmlns="http://www.w3.org/2000/svg" xmlns:xlink="http://www.w3.org/1999/xlink" width="170" height="36" viewBox="0 0 170 36">
    <defs>
        <path id="a" d="M97.859 17.75V.12H0v17.63h97.859z"/>
    </defs>
    <g fill="none" fill-rule="evenodd">
        <path fill="#1E67E5" d="M36.844 6.634V9.27l-1.245.714-1.244.713-1.243-.713-1.055-.606-3.077 1.764v2.737l.275-.158 1.245-.713 1.244.713 1.243.713v2.852L31.744 18l-1.244.713L29.255 18l-.275-.158V25.53l6.275 3.596 6.276 3.597 6.276-3.597 6.275-3.596V11.142l-6.275-3.597-6.276-3.597zM28.367 2.723l-1.224.689-1.225.69v2.754l1.225.688 1.224.69 1.225-.69 1.224-.688V4.1l-1.224-.69zM23.47 11.295l1.224.688 1.224.69v2.754l-1.224.69-1.224.688-1.225-.688-1.225-.69v-2.754l1.225-.69zM19.797 5.172l.917.537.919.536v2.142l-.919.535-.917.536-.92-.536-.918-.535V6.245l.919-.536zM13.674 4.33l-.613.383v1.53l.613.383.612.383.612-.383.612-.383v-1.53l-.612-.382-.612-.383z"/>
        <g transform="translate(58.98 8.234)">
            <mask id="b" fill="#fff">
                <use xlink:href="#a"/>
            </mask>
            <path fill="#231F20" d="M1.774 11.367V4.93H.124V3.205h3.6V4.45C4.9 3.52 6.05 3.052 7.178 3.052c1.126 0 1.91.512 2.349 1.541 1.298-1.029 2.5-1.541 3.607-1.541.63 0 1.15.14 1.564.418.413.28.697.638.847 1.074.15.436.224 1.074.224 1.921v4.902h1.732v1.726h-3.68V6.81c0-.593-.029-.993-.082-1.206a.9.9 0 0 0-.385-.586 1.273 1.273 0 0 0-.755-.23c-.833 0-1.779.426-2.839 1.276v5.303h1.702v1.726h-3.65V6.626c0-.638-.095-1.106-.287-1.399-.193-.292-.508-.44-.953-.44-.738 0-1.686.427-2.848 1.277v5.303h1.743v1.726H0v-1.726h1.774zm26.716 0v1.726h-3.405v-1.207c-.949.913-2.003 1.37-3.157 1.37a3.438 3.438 0 0 1-2.351-.878c-.669-.585-1.001-1.335-1.001-2.249 0-.913.353-1.674 1.06-2.283.707-.61 1.56-.913 2.558-.913.92 0 1.82.278 2.694.836v-.98c0-.516-.045-.906-.14-1.168-.09-.261-.315-.502-.674-.725-.358-.219-.82-.33-1.38-.33-.969 0-1.676.386-2.12 1.163l-1.87-.49c.83-1.538 2.258-2.31 4.288-2.31.731 0 1.372.099 1.917.297.547.2.953.454 1.222.767.266.314.448.659.542 1.043.094.38.144.966.144 1.754v4.577h1.673zm-3.602-1.953c-.839-.651-1.69-.979-2.551-.979-.538 0-.99.154-1.354.464-.36.31-.542.718-.542 1.22a1.58 1.58 0 0 0 1.029 1.516c.217.08.465.119.745.119.948 0 1.84-.394 2.673-1.186V9.414zm16.759-6.209v1.726h-1.785v7.363c0 .99-.052 1.726-.153 2.207-.102.485-.35.976-.746 1.471-.392.499-.98.917-1.766 1.262-.788.346-1.667.517-2.637.517a6.33 6.33 0 0 1-3.915-1.319l1.27-1.408c.869.666 1.807 1 2.81 1 .56 0 1.075-.104 1.546-.317.474-.21.831-.47 1.072-.781.245-.31.4-.602.47-.885.027-.122.048-.304.069-.551.021-.244.032-.523.032-.837v-.9c-.309.388-.792.757-1.445 1.106a4.57 4.57 0 0 1-2.153.52c-1.414 0-2.572-.493-3.471-1.475-.9-.987-1.348-2.19-1.348-3.612 0-1.552.494-2.814 1.48-3.786.987-.97 2.132-1.454 3.43-1.454 1.312 0 2.481.52 3.507 1.562V3.205h3.733zM31.569 8.25c0 1.008.29 1.827.874 2.458.586.63 1.334.945 2.244.945.87 0 1.634-.318 2.285-.956.648-.637.973-1.457.973-2.457 0-1.008-.322-1.824-.962-2.441-.644-.62-1.39-.93-2.237-.93-.832 0-1.57.303-2.215.913-.64.61-.962 1.432-.962 2.468zm21.15.387h-8.345c.122.907.486 1.645 1.088 2.214.601.569 1.368.854 2.306.854 1.354 0 2.428-.548 3.23-1.638l1.721.756a5.22 5.22 0 0 1-2.183 1.93c-.438.2-.892.353-1.369.461a6.466 6.466 0 0 1-1.44.165c-1.51 0-2.808-.471-3.886-1.416-1.081-.941-1.62-2.214-1.62-3.814 0-1.506.522-2.75 1.568-3.737 1.046-.987 2.254-1.482 3.618-1.482 1.327 0 2.533.48 3.622 1.44a4.65 4.65 0 0 1 1.253 1.791c.29.719.437 1.545.437 2.476zm-2.008-1.409c-.13-.693-.49-1.32-1.08-1.882-.593-.561-1.317-.844-2.171-.844-.777 0-1.446.251-1.998.756-.554.503-.892 1.161-1.015 1.97h6.264zm3.583 5.865V9.662h.963c0 .816.283 1.478.85 1.98.566.506 1.312.756 2.236.756.798 0 1.46-.184 1.985-.557.521-.37.783-.837.783-1.405 0-.652-.237-1.091-.713-1.311-.473-.223-1.25-.443-2.327-.659-1.075-.22-1.883-.505-2.425-.857-.54-.356-.809-.976-.809-1.858 0-.52.133-.977.4-1.378.264-.397.639-.721 1.119-.972a3.37 3.37 0 0 1 .742-.259c.27-.059.552-.09.846-.09 1.176 0 2.086.433 2.726 1.297h.053V3.195h.924v3.25h-.924c0-.231-.035-.454-.102-.67a2.828 2.828 0 0 0-.286-.617 2.444 2.444 0 0 0-.977-.889 2.94 2.94 0 0 0-1.376-.318c-.71 0-1.249.189-1.612.561-.369.377-.55.796-.55 1.255 0 .587.22.977.664 1.172.446.196 1.219.401 2.321.625 1.1.219 1.924.519 2.475.891.549.374.824 1.008.824 1.9 0 .573-.153 1.075-.46 1.507-.309.432-.75.77-1.324 1.011-.574.24-1.239.363-1.998.363-1.39 0-2.397-.46-3.023-1.381h-.042v1.238h-.963zM64.73 4.136h-1.764v-.941h1.764V.978L65.824.12v3.075h2.072v.94h-2.072v6.904c0 .422.042.732.13.93.085.196.281.315.588.357.035.007.098.01.185.01.287 0 .676-.063 1.17-.185v.942c-.51.15-.984.222-1.414.222-.116 0-.203-.004-.256-.01-.472-.041-.839-.216-1.102-.526-.262-.31-.395-.736-.395-1.28V4.137zm4.493 4.023c0-.965.217-1.85.647-2.656a4.863 4.863 0 0 1 1.771-1.89c.752-.456 1.59-.683 2.513-.683.93 0 1.77.227 2.526.68a4.796 4.796 0 0 1 1.785 1.89c.434.805.65 1.694.65 2.66 0 .958-.216 1.836-.647 2.635a5.023 5.023 0 0 1-1.792 1.91 4.773 4.773 0 0 1-1.196.51c-.42.115-.861.174-1.326.174-.931 0-1.767-.227-2.513-.68-.746-.453-1.334-1.084-1.767-1.893a5.552 5.552 0 0 1-.651-2.657zm1.116 0c0 .802.164 1.528.494 2.172a3.8 3.8 0 0 0 1.36 1.517 3.6 3.6 0 0 0 1.961.55c.738 0 1.396-.18 1.973-.547.578-.362 1.036-.874 1.369-1.53a4.687 4.687 0 0 0 .503-2.162c0-.784-.165-1.505-.497-2.164-.332-.663-.787-1.176-1.367-1.538-.581-.366-1.243-.548-1.981-.548-.526 0-1.023.102-1.488.308a3.598 3.598 0 0 0-1.228.888 3.93 3.93 0 0 0-.816 1.367 4.96 4.96 0 0 0-.283 1.687zm10.072 4.934v-.942h1.885V4.136H80.41v-.941h2.98v2.43h.043c.238-.614.574-1.113 1.004-1.5.43-.39.951-.68 1.558-.867.276-.091.555-.147.846-.171.29-.024.672-.035 1.144-.035v1.042c-.539 0-.976.014-1.307.046-.33.031-.659.094-.98.188-.607.178-1.075.432-1.404.767-.33.335-.564.75-.707 1.245a5.245 5.245 0 0 0-.144.776 7.68 7.68 0 0 0-.052.932v4.103h2.04v.942h-5.021zm17.448-4.707h-8.927c0 .729.185 1.412.553 2.054.37.638.874 1.143 1.518 1.513.64.373 1.344.557 2.11.557.752 0 1.463-.181 2.128-.547.665-.362 1.253-.9 1.756-1.607l.862.397c-.483.813-1.166 1.454-2.04 1.925a5.842 5.842 0 0 1-2.828.71 5.438 5.438 0 0 1-2.051-.375 4.824 4.824 0 0 1-1.644-1.11 5.01 5.01 0 0 1-1.085-1.676 5.654 5.654 0 0 1-.368-2.068c0-.973.217-1.865.648-2.67a4.7 4.7 0 0 1 1.788-1.886c.762-.45 1.634-.673 2.617-.673.746 0 1.418.129 2.016.387a4.568 4.568 0 0 1 1.554 1.108 5.14 5.14 0 0 1 1.025 1.754c.245.687.368 1.423.368 2.207zm-8.927-.941h7.789c-.122-.757-.36-1.402-.714-1.942a3.574 3.574 0 0 0-1.34-1.227c-.542-.283-1.162-.426-1.862-.426-1.014 0-1.86.314-2.544.945-.678.631-1.123 1.514-1.329 2.65z" mask="url(#b)"/>
        </g>
    </g>
</svg>
