<svg xmlns="http://www.w3.org/2000/svg" width="25" height="25" viewBox="0 0 25 25">
    <g fill="none" fill-rule="evenodd">
        <g stroke="#6980EC" stroke-linecap="round" stroke-linejoin="round" stroke-width="1.5">
            <path d="M12.062 3.324c5.377 0 9.738 1.453 9.738 3.247 0 1.789-4.362 3.246-9.738 3.246-5.377 0-9.74-1.457-9.74-3.246 0-1.794 4.363-3.247 9.74-3.247zM9.464 14.243c-4.113-.377-7.14-1.637-7.14-3.129"/>
            <path d="M7.518 18.526c-3.093-.547-5.193-1.623-5.193-2.87V6.569M21.688 7.2v3.15M16.605 12.412a5.193 5.193 0 1 1 0 10.387 5.193 5.193 0 0 1 0-10.387zM13.852 17.7h5.508"/>
            <path d="M17.592 19.464l1.86-1.86-1.86-1.86"/>
        </g>
        <path d="M0 0h25v25H0z"/>
    </g>
</svg>
