<svg xmlns="http://www.w3.org/2000/svg" width="25" height="25" viewBox="0 0 25 25">
    <g fill="none" fill-rule="evenodd">
        <path d="M0 0h25v25H0z"/>
        <path fill="#6980EC" d="M7.037 8.682c0 2.405 2.622 2.489 2.622 4.22 0 .602-.269.818-.696.818-.426 0-.695-.216-.695-.817v-.662H7v.577c0 1.143.488 1.876 1.451 2.069v.613H9.55v-.613C10.5 14.694 11 13.96 11 12.818c0-2.405-2.622-2.489-2.622-4.22 0-.602.244-.83.67-.83.428 0 .672.228.672.83v.348h1.268v-.264c0-1.143-.488-1.864-1.44-2.057V6H8.452v.625c-.939.205-1.414.926-1.414 2.057z"/>
        <path stroke="#6980EC" stroke-linecap="round" stroke-linejoin="round" stroke-width="1.5" d="M4.472 19.5H2v1.862c0 .791.668 1.438 1.484 1.438h18.392c.041 0 .083-.003.124-.006"/>
        <path stroke="#6980EC" stroke-linecap="round" stroke-linejoin="round" stroke-width="1.5" d="M21.204 2H4.795A.787.787 0 0 0 4 2.774v16.704h14.512V21c0 .866.504 1.703 1.488 1.8.041.005 1.458 0 1.5 0 1 0 1.5-.8 1.5-1.8V2.774C23 2.35 21.641 2 21.204 2zM13 7h2M18 7h2M13 10.5h4M13 14h7"/>
    </g>
</svg>
