<?xml version="1.0" encoding="UTF-8"?>
<svg width="17px" height="17px" viewBox="0 0 17 17" version="1.1" xmlns="http://www.w3.org/2000/svg" xmlns:xlink="http://www.w3.org/1999/xlink">
    <!-- Generator: Sketch 46.2 (44496) - http://www.bohemiancoding.com/sketch -->
    <title>[-]@1x</title>
    <desc>Created with Sketch.</desc>
    <defs></defs>
    <g id="-" stroke="none" stroke-width="1" fill="none" fill-rule="evenodd">
        <g id="Tablet-customer-cart-guest" transform="translate(-331.000000, -98.000000)" fill="#4A90E2">
            <g id="Group-10" transform="translate(69.500000, 78.500000)">
                <g id="[-]" transform="translate(262.000000, 20.000000)">
                    <g transform="translate(0.888889, 0.888889)">
                        <path d="M7.11111111,14.8888889 C2.81556306,14.8888889 -0.666666667,11.4066592 -0.666666667,7.11111111 C-0.666666667,2.81556306 2.81556306,-0.666666667 7.11111111,-0.666666667 C11.4066592,-0.666666667 14.8888889,2.81556306 14.8888889,7.11111111 C14.8888889,11.4066592 11.4066592,14.8888889 7.11111111,14.8888889 Z M7.11111111,13.5555556 C10.6702795,13.5555556 13.5555556,10.6702795 13.5555556,7.11111111 C13.5555556,3.55194272 10.6702795,0.666666667 7.11111111,0.666666667 C3.55194272,0.666666667 0.666666667,3.55194272 0.666666667,7.11111111 C0.666666667,10.6702795 3.55194272,13.5555556 7.11111111,13.5555556 Z" id="Oval-2" fill-rule="nonzero"></path>
                        <polygon id="Line-4" fill-rule="nonzero" points="3.97101449 7.93236715 10.8695652 7.93236715 10.8695652 6.59903382 3.97101449 6.59903382"></polygon>
                    </g>
                </g>
            </g>
        </g>
    </g>
</svg>