<svg xmlns="http://www.w3.org/2000/svg" width="72" height="62" viewBox="0 0 72 62">
    <g fill="none" fill-rule="evenodd">
        <path fill="#1E67E5" d="M37.705 43.288v2.48c.869-.096 1.343-.534 1.343-1.185 0-.6-.298-.97-1.343-1.295m-1.073-1.896V38.98c-.872.08-1.307.542-1.307 1.142 0 .575.26.928 1.307 1.269m.54-4.648c.327 0 .586.26.586.587v.301c.8.096 1.48.355 2.105.749.219.122.41.327.41.654 0 .424-.34.749-.762.749a.765.765 0 0 1-.407-.123c-.476-.285-.937-.49-1.4-.599v2.619c2.068.517 2.948 1.347 2.948 2.807 0 1.499-1.167 2.493-2.894 2.658v.818a.58.58 0 0 1-.585.587.59.59 0 0 1-.597-.587v-.844a5.898 5.898 0 0 1-2.787-1.065.748.748 0 0 1-.367-.653c0-.424.327-.751.747-.751.164 0 .326.056.449.151.64.464 1.264.775 2.012.911v-2.685c-1.986-.517-2.911-1.268-2.911-2.808 0-1.456 1.156-2.468 2.856-2.602v-.287a.595.595 0 0 1 .598-.587"/>
        <path stroke="#1E67E5" stroke-linecap="round" stroke-linejoin="round" stroke-width="2" d="M62.39 60.36h5.78a2.725 2.725 0 0 0 2.719-2.727V27.63a2.725 2.725 0 0 0-2.72-2.727H5.613a2.725 2.725 0 0 0-2.72 2.727v30.004a2.725 2.725 0 0 0 2.72 2.727H54.4"/>
        <path stroke="#1E67E5" stroke-linecap="round" stroke-linejoin="round" stroke-width="2" d="M36.891 32.192c5.751 0 10.412 4.674 10.412 10.438 0 5.767-4.66 10.442-10.412 10.442-5.75 0-10.411-4.675-10.411-10.442 0-5.764 4.66-10.438 10.411-10.438zM61.229 2.852a2.486 2.486 0 0 0-3.05-1.766L2.849 15.951a2.497 2.497 0 0 0-1.763 3.059"/>
        <path stroke="#1E67E5" stroke-linecap="round" stroke-linejoin="round" stroke-width="2" d="M67.123 24.907L61.229 2.852a2.486 2.486 0 0 0-3.05-1.765L2.849 15.952a2.497 2.497 0 0 0-1.763 3.058l1.81 7.098M57.133 19.308L36.317 24.9"/>
        <path stroke="#1E67E5" stroke-linecap="round" stroke-linejoin="round" stroke-width="2" d="M38.987 14.059l23.545-6.326 2.527 9.446-3.966 1.065M2.39 23.89l28.992-7.787"/>
    </g>
</svg>
