<svg xmlns="http://www.w3.org/2000/svg" width="128" height="160" viewBox="0 0 128 160">
    <g fill="none" fill-rule="evenodd">
        <path fill="#FFF" stroke="#4C8EFF" stroke-linecap="round" stroke-linejoin="round" stroke-width="2" d="M16 131.702V1h75.041L127 37.074v93.451c0 10.756-8.692 19.475-19.413 19.475"/>
        <path stroke="#4C8EFF" stroke-linecap="round" stroke-linejoin="round" stroke-width="2" d="M127 37H91V1z"/>
        <path fill="#FFF" stroke="#4C8EFF" stroke-linecap="round" stroke-linejoin="round" stroke-width="2" d="M91.064 132.472V132H1v.947C1 142.365 8.773 150 18.363 150h86.756c.635 0 1.263-.036 1.881-.1-8.958-.938-15.936-8.382-15.936-17.428z"/>
        <path stroke="#4C8EFF" stroke-linecap="round" stroke-linejoin="round" stroke-width="2" d="M33 19h43M33 35h27M81 97c-1.262-3.485-4.81-6-9-6s-7.738 2.515-9 6"/>
        <path fill="#C9E9FF" d="M52.397 106.258c-11.102-11.032-11.102-28.92 0-39.952 11.102-11.032 29.102-11.032 40.206 0 11.102 11.033 11.102 28.92 0 39.952-11.104 11.032-29.104 11.032-40.206 0m25.408 49.46v-35.566a34.416 34.416 0 0 0 19.09-9.629c13.474-13.388 13.474-35.094 0-48.481-13.473-13.39-35.317-13.39-48.79 0-13.473 13.387-13.473 35.093 0 48.481 6.405 6.365 14.703 9.698 23.094 10.01v35.185c0 1.805 1.486 3.282 3.303 3.282s3.303-1.477 3.303-3.282"/>
        <path stroke="#4C8EFF" stroke-width="2" d="M52.397 106.258c-11.102-11.032-11.102-28.92 0-39.952 11.102-11.032 29.102-11.032 40.206 0 11.102 11.033 11.102 28.92 0 39.952-11.104 11.032-29.104 11.032-40.206 0zm25.408 49.46v-35.566a34.416 34.416 0 0 0 19.09-9.629c13.474-13.388 13.474-35.094 0-48.481-13.473-13.39-35.317-13.39-48.79 0-13.473 13.387-13.473 35.093 0 48.481 6.405 6.365 14.703 9.698 23.094 10.01v35.185c0 1.805 1.486 3.282 3.303 3.282s3.303-1.477 3.303-3.282z"/>
        <path fill="#4C8EFF" d="M60 82.5a2.5 2.5 0 1 1-5 0 2.5 2.5 0 0 1 5 0M90 82.5a2.5 2.5 0 1 1-5 0 2.5 2.5 0 0 1 5 0"/>
    </g>
</svg>
