<svg xmlns="http://www.w3.org/2000/svg" width="30" height="30" viewBox="0 0 30 30">
    <g fill="none" fill-rule="evenodd">
        <g stroke="#4A90E2" stroke-linecap="round" stroke-linejoin="round" stroke-width="1.5" transform="translate(2 6)">
            <rect width="27" height="18.5" rx="1"/>
            <path d="M0 4h26M0 5h26M3 10h8M3 14h5M20.25 10.51c.345-.317.8-.51 1.3-.51 1.077 0 1.95.895 1.95 2s-.873 2-1.95 2c-.5 0-.955-.193-1.3-.51-.345.317-.8.51-1.3.51-1.077 0-1.95-.895-1.95-2s.873-2 1.95-2c.5 0 .955.193 1.3.51z"/>
        </g>
        <path d="M0 0h30v30H0z"/>
    </g>
</svg>
