<svg xmlns="http://www.w3.org/2000/svg" width="48" height="40" viewBox="0 0 48 40">
    <g fill="none" fill-rule="evenodd">
        <path fill="#1E67E5" d="M24.537 28.192v1.653c.58-.064.898-.355.898-.79 0-.4-.2-.646-.898-.863m-.717-1.264V25.32c-.583.054-.874.362-.874.762 0 .383.174.618.874.846m.361-3.098c.219 0 .391.173.391.39v.201c.536.064.99.237 1.408.5.146.081.274.218.274.436a.5.5 0 0 1-.51.499.513.513 0 0 1-.272-.082 3.294 3.294 0 0 0-.935-.399v1.745c1.382.345 1.97.899 1.97 1.872 0 1-.78 1.662-1.935 1.772v.546c0 .218-.172.39-.39.39-.22 0-.4-.171-.4-.39v-.563a3.949 3.949 0 0 1-1.862-.71.498.498 0 0 1-.246-.436c0-.282.218-.5.5-.5.11 0 .217.037.3.1.427.31.845.517 1.345.608v-1.79c-1.329-.345-1.947-.846-1.947-1.872 0-.971.773-1.646 1.91-1.735v-.192c0-.216.181-.39.4-.39"/>
        <path stroke="#1E67E5" stroke-linecap="round" stroke-linejoin="round" stroke-width="2" d="M41.038 39.574h3.864a1.819 1.819 0 0 0 1.818-1.819V17.753a1.819 1.819 0 0 0-1.818-1.818H3.084a1.819 1.819 0 0 0-1.818 1.818v20.002c0 1.004.814 1.819 1.818 1.819h32.614"/>
        <path stroke="#1E67E5" stroke-linecap="round" stroke-linejoin="round" stroke-width="2" d="M23.993 20.794a6.96 6.96 0 1 1 0 13.92 6.96 6.96 0 0 1 0-13.92zM40.263 1.235A1.663 1.663 0 0 0 38.224.057L1.235 9.967a1.664 1.664 0 0 0-1.178 2.04"/>
        <path stroke="#1E67E5" stroke-linecap="round" stroke-linejoin="round" stroke-width="2" d="M44.203 15.938l-3.94-14.703A1.663 1.663 0 0 0 38.224.058L1.235 9.968a1.664 1.664 0 0 0-1.178 2.039l1.21 4.732M37.525 12.205l-13.916 3.73"/>
        <path stroke="#1E67E5" stroke-linecap="round" stroke-linejoin="round" stroke-width="2" d="M25.394 8.706l15.74-4.217 1.689 6.297-2.65.71M.93 15.26l19.38-5.191"/>
    </g>
</svg>
