<svg xmlns="http://www.w3.org/2000/svg" width="45" height="54" viewBox="0 0 45 54">
    <g fill="none" fill-rule="nonzero">
        <path fill="#263B80" d="M40.078 3.953C37.74 1.318 33.398 0 27.387 0h-16.7C9.687 0 8.684.988 8.35 1.976L1.67 45.13c0 .989.668 1.647 1.336 1.647h10.353l2.672-16.14v.658c.334-.988 1.336-1.976 2.338-1.976h5.01c9.685 0 17.033-3.953 19.371-14.824v-.988c-.334 0-.334 0 0 0 .334-4.282-.334-6.918-2.672-9.553"/>
        <path fill="#139AD6" d="M41.048 13.5v1.021c-2.318 11.571-9.602 15.315-19.203 15.315h-4.966c-.994 0-1.987 1.021-2.318 2.042l-3.311 20.76c0 .681.331 1.362 1.324 1.362h8.609c.993 0 1.986-.68 1.986-1.702v-.34l1.656-10.55v-.681c0-1.021.993-1.702 1.986-1.702h1.325c8.277 0 14.899-3.403 16.554-13.613.662-4.084.331-7.828-1.655-10.21-.331-.681-.994-1.362-1.987-1.702"/>
        <path fill="#232C65" d="M39.75 12.262c-.333 0-.667-.337-1-.337-.333 0-.667 0-1-.338-1.333-.337-2.667-.337-4.333-.337h-13c-.334 0-.667 0-1 .338-.667.337-1 1.012-1 1.687l-2.667 17.55v.675c.333-1.012 1.333-2.025 2.333-2.025h5c9.667 0 17-4.05 19.334-15.188 0-.337 0-.675.333-1.012-.667-.338-1-.675-1.667-.675-1-.338-1-.338-1.333-.338"/>
    </g>
</svg>
