<?xml version="1.0" encoding="UTF-8"?>
<svg width="20px" height="20px" viewBox="0 0 20 20" version="1.1" xmlns="http://www.w3.org/2000/svg" xmlns:xlink="http://www.w3.org/1999/xlink">
    <!-- Generator: Sketch 46.2 (44496) - http://www.bohemiancoding.com/sketch -->
    <title>[+]@1x</title>
    <desc>Created with Sketch.</desc>
    <defs></defs>
    <g id="Symbols" stroke="none" stroke-width="1" fill="none" fill-rule="evenodd">
        <g id="[+]" fill-rule="nonzero" fill="#4A90E2">
            <g transform="translate(0.111111, 0.111111)">
                <path d="M9.88888889,19.6111111 C4.51945382,19.6111111 0.166666667,15.258324 0.166666667,9.88888889 C0.166666667,4.51945382 4.51945382,0.166666667 9.88888889,0.166666667 C15.258324,0.166666667 19.6111111,4.51945382 19.6111111,9.88888889 C19.6111111,15.258324 15.258324,19.6111111 9.88888889,19.6111111 Z M9.88888889,17.9444444 C14.3378494,17.9444444 17.9444444,14.3378494 17.9444444,9.88888889 C17.9444444,5.4399284 14.3378494,1.83333333 9.88888889,1.83333333 C5.4399284,1.83333333 1.83333333,5.4399284 1.83333333,9.88888889 C1.83333333,14.3378494 5.4399284,17.9444444 9.88888889,17.9444444 Z" id="Oval-2"></path>
                <polygon id="Line-4" points="5.96376812 10.9154589 14.5869565 10.9154589 14.5869565 9.24879227 5.96376812 9.24879227"></polygon>
                <polygon id="Line-4" transform="translate(10.275362, 10.082126) rotate(90.000000) translate(-10.275362, -10.082126) " points="5.96376812 10.9154589 14.5869565 10.9154589 14.5869565 9.24879227 5.96376812 9.24879227"></polygon>
            </g>
        </g>
    </g>
</svg>