<svg xmlns="http://www.w3.org/2000/svg" width="25" height="25" viewBox="0 0 25 25">
    <g fill="none" fill-rule="evenodd">
        <g stroke="#6980EC" stroke-linecap="round" stroke-linejoin="round" stroke-width="1.5">
            <path d="M11.235 1.037A11.15 11.15 0 0 0 2.306 6.92C-.587 12.36 1.48 19.117 6.92 22.01c5.441 2.894 12.197.828 15.09-4.613m.986-2.574a11.08 11.08 0 0 0 .32-2.434m-.23-2.492a11.226 11.226 0 0 0-.692-2.181m-1.34-2.299a11.075 11.075 0 0 0-1.726-1.812m-1.931-1.299a11.189 11.189 0 0 0-2.432-.95"/>
            <path d="M12 5.5v7.186l4 2.814"/>
        </g>
        <path d="M0 0h25v25H0z"/>
    </g>
</svg>
