<svg xmlns="http://www.w3.org/2000/svg" width="25" height="25" viewBox="0 0 25 25">
    <g fill="none" fill-rule="evenodd">
        <path d="M0 0h25v25H0z"/>
        <path stroke="#6980EC" stroke-linecap="round" stroke-linejoin="round" stroke-width="1.5" d="M16 13a4 4 0 1 1-8 0 4 4 0 1 1 8 0z"/>
        <path stroke="#6980EC" stroke-linecap="round" stroke-linejoin="round" stroke-width="1.5" d="M23 14.542V11.83l-2.514-.803a8.686 8.686 0 0 0-.879-2.274l1.261-2.442-1.917-1.917-2.345 1.21a8.648 8.648 0 0 0-2.23-.986L13.543 2H10.83l-.803 2.514a8.636 8.636 0 0 0-2.274.879L5.31 4.132 3.395 6.049l1.21 2.344a8.654 8.654 0 0 0-.986 2.23L1 11.458v2.711l2.514.803c.187.806.485 1.57.879 2.274l-1.261 2.442 1.916 1.917 2.345-1.21a8.69 8.69 0 0 0 2.23.986L10.458 24h2.711l.803-2.514a8.7 8.7 0 0 0 2.274-.879l2.442 1.261 1.917-1.917-1.211-2.345a8.65 8.65 0 0 0 .987-2.23L23 14.543z"/>
    </g>
</svg>
