<svg xmlns="http://www.w3.org/2000/svg" width="54" height="55" viewBox="0 0 54 55">
    <g fill="none" fill-rule="evenodd">
        <path fill="#104273" d="M5.323 15.03h42.88a2 2 0 0 1 2 2.034l-.092 5.404c-.269-.896-.665-1.282-1.063-1.614-.398-.333-.912-.604-2.166-.616a2161.67 2161.67 0 0 0-41.248-.005 2.61 2.61 0 0 1-.311-5.203z"/>
        <g transform="translate(10.818 2)">
            <circle cx="11.075" cy="11.075" r="11.075" fill="#FFCC05"/>
            <circle cx="11.075" cy="11.075" r="8.469" stroke="#FFF"/>
            <path fill="#FFF" stroke="#FFF" stroke-width=".3" d="M11.839 17.059h-.986v-.987c-1.175-.067-1.975-.345-2.399-.833-.424-.488-.636-1.029-.636-1.622v-.064h1.285v.064c0 .381.11.694.328.938.218.244.692.41 1.422.5v-3.423l-.395-.153c-.912-.37-1.522-.756-1.832-1.161-.31-.405-.464-.892-.464-1.46 0-.45.096-.86.289-1.232.193-.37.477-.677.853-.919.375-.242.891-.403 1.549-.483V5.212h.986v1.012c.942.067 1.576.292 1.902.674.327.382.49.787.49 1.215v.064h-1.279v-.064a.705.705 0 0 0-.283-.576c-.188-.15-.465-.255-.83-.315v3.48l.54.192c.43.165.818.367 1.168.607s.593.513.729.82c.135.308.203.63.203.965 0 .415-.097.825-.292 1.228a2.75 2.75 0 0 1-.834 1.011c-.36.272-.865.454-1.514.547v.987zm-.986-6.719V7.21c-.518.089-.89.285-1.117.588-.227.304-.34.646-.34 1.028 0 .31.086.571.258.786.171.214.488.425.95.633l.249.095zm.986 1.648v3.035c.382-.047.663-.143.843-.29.18-.146.32-.334.417-.563a1.8 1.8 0 0 0 .146-.712c0-.31-.084-.57-.251-.783-.168-.212-.45-.403-.85-.573l-.305-.114z"/>
        </g>
        <path fill="#1976D2" d="M3 17.636c.161.693.471 1.297.935 1.647.463.35.994.684 2.042.684H48.17a2 2 0 0 1 2 2v29.878a2 2 0 0 1-2 2H5a2 2 0 0 1-2-2V17.636z"/>
        <g transform="translate(5.606 22.848)">
            <path stroke="#96C7F8" stroke-dasharray="2,2" stroke-linecap="round" stroke-linejoin="round" d="M1 0h40.217a1 1 0 0 1 1 1v26.666a1 1 0 0 1-1 1H1a1 1 0 0 1-1-1V1a1 1 0 0 1 1-1z"/>
            <path fill="#104273" d="M35.181 7.818h10.727a1 1 0 0 1 1 1v8.424a1 1 0 0 1-1 1H34.969a5 5 0 0 1-5-5v-.212a5.212 5.212 0 0 1 5.212-5.212z"/>
            <circle cx="35.181" cy="13.03" r="1.303" fill="#D8D8D8" stroke="#FFF"/>
        </g>
        <path d="M0 0h54v54H0z"/>
    </g>
</svg>
