<?xml version="1.0" standalone="no"?>
<!DOCTYPE svg PUBLIC "-//W3C//DTD SVG 20010904//EN"
 "http://www.w3.org/TR/2001/REC-SVG-20010904/DTD/svg10.dtd">
<svg version="1.0" xmlns="http://www.w3.org/2000/svg"
 width="102.000000pt" height="144.000000pt" viewBox="0 0 102.000000 144.000000"
 preserveAspectRatio="xMidYMid meet">
<metadata>
Created by potrace 1.15, written by Peter Selinger 2001-2017
</metadata>
<g transform="translate(0.000000,144.000000) scale(0.100000,-0.100000)"
fill="#000000" stroke="none">
<path d="M136 1416 c-22 -21 -26 -34 -26 -86 l0 -60 -35 0 c-36 0 -75 -28 -75
-53 0 -31 31 -57 70 -57 l38 0 4 -182 c4 -200 10 -225 67 -291 l32 -36 -35
-45 c-57 -75 -61 -98 -61 -338 0 -241 3 -251 65 -251 62 0 64 9 70 264 l5 231
36 32 c25 23 50 35 82 40 55 8 77 27 77 65 0 37 -25 57 -78 64 -50 6 -85 27
-109 64 -15 23 -19 56 -21 205 l-4 178 95 0 95 0 4 -112 c3 -87 9 -124 25
-159 25 -57 83 -115 137 -140 51 -23 162 -25 213 -4 19 8 37 15 39 15 13 0 1
-90 -16 -117 -28 -46 -61 -64 -134 -73 -158 -19 -258 -126 -259 -275 0 -204
202 -338 386 -257 168 75 219 293 101 430 l-37 43 26 27 c14 15 35 47 46 72
19 42 21 65 21 340 0 162 -4 300 -8 306 -27 42 -95 35 -112 -11 -6 -15 -10
-86 -10 -158 0 -148 -10 -179 -72 -218 -41 -25 -116 -21 -156 8 -51 37 -62 75
-62 221 0 178 6 172 -180 172 l-140 0 0 63 c0 70 -12 93 -52 102 -21 5 -33 1
-52 -19z m642 -986 c34 -15 47 -29 64 -66 48 -109 -19 -224 -129 -224 -92 0
-143 55 -143 153 0 73 20 110 75 137 50 25 78 25 133 0z"/>
</g>
</svg>
